<svg width="100" height="100" viewBox="0 0 100 100" fill="none" xmlns="http://www.w3.org/2000/svg">
<rect width="100" height="100" rx="22" fill="white"/>
<rect width="100" height="100" rx="22" fill="#EB5757"/>
<g clip-path="url(#clip0)">
<path d="M85.4333 12V15.85H49.5C44.0757 15.846 38.7272 17.1243 33.8908 19.5806L25.1167 16.946C21.2227 15.7751 17.1168 17.9826 15.946 21.8765C15.5302 23.2593 15.5302 24.7339 15.946 26.1167L18.5806 34.8947C16.1248 39.7298 14.8466 45.077 14.85 50.5C14.85 50.885 14.8667 51.261 14.8795 51.6396C14.8665 51.6868 14.8566 51.7349 14.85 51.7833V86.4333H11V89H36.6667V86.4333H32.8167V80.8572C42.8251 86.3751 54.9149 86.5854 65.1092 81.4193L73.8833 84.054C77.7773 85.2249 81.8832 83.0174 83.054 79.1235C83.4698 77.7407 83.4698 76.2661 83.054 74.8833L80.4193 66.1053C82.8752 61.2702 84.1534 55.923 84.15 50.5C84.1457 45.636 83.1212 40.8269 81.1432 36.3833H85.4333V40.2333H88V12H85.4333ZM18.4061 25.3749C17.6422 22.8426 19.0759 20.1703 21.6084 19.4064C22.5101 19.1344 23.4719 19.1344 24.3736 19.4061L30.798 21.3311C30.6016 21.4594 30.413 21.5878 30.223 21.7161L30.0434 21.838C26.4215 24.2934 23.2998 27.4151 20.8444 31.037L20.7225 31.2166C20.5942 31.4091 20.4582 31.6016 20.3375 31.7916L18.4061 25.3749ZM30.25 86.4333H17.4167V83.8667H30.25V86.4333ZM17.4167 81.3V63.5682C17.7349 64.3467 18.0806 65.1116 18.4536 65.8628L18.5088 65.9693C18.851 66.6538 19.2172 67.3279 19.6073 67.9918C19.6522 68.0675 19.6933 68.1433 19.7356 68.219C20.1232 68.8683 20.5318 69.5036 20.9612 70.1247C21.0677 70.2787 21.1794 70.4302 21.2885 70.5842C21.6307 71.0667 21.9871 71.5398 22.3575 72.0035C22.4858 72.1601 22.6 72.3179 22.7258 72.4719C23.1557 72.9955 23.6049 73.4986 24.0643 74.0004C24.2581 74.2109 24.4583 74.4162 24.6585 74.6228C25.0153 74.9898 25.3802 75.3492 25.7532 75.7008C25.9919 75.9267 26.2319 76.15 26.4783 76.3682C26.9061 76.7506 27.3437 77.1215 27.7911 77.4808C28.0144 77.6605 28.239 77.8376 28.4674 78.0121C29.0141 78.4305 29.5685 78.8386 30.1358 79.2248C30.173 79.2505 30.2064 79.2787 30.2436 79.3031L30.25 81.3H17.4167ZM80.5939 75.6251C81.3557 78.1597 79.9185 80.8317 77.3841 81.5936C76.4848 81.8639 75.5258 81.864 74.6264 81.5939L68.202 79.6689C68.3984 79.5405 68.587 79.4122 68.7769 79.2839L68.9566 79.162C72.5785 76.7066 75.7002 73.5849 78.1555 69.963L78.2775 69.7834C78.4058 69.5909 78.5418 69.3984 78.6625 69.2084L80.5939 75.6251ZM81.5833 50.5C81.5886 55.7668 80.2888 60.9529 77.8001 65.5946C77.4959 66.1656 77.1738 66.7226 76.8376 67.2706C76.6925 67.5067 76.5398 67.7377 76.3897 67.97C76.1728 68.3037 75.9482 68.6309 75.7198 68.9543C75.4033 69.4043 75.0743 69.8458 74.7329 70.2787C74.5494 70.5136 74.3671 70.7484 74.1772 70.9781C73.9077 71.3033 73.6313 71.6224 73.3482 71.9355C73.2198 72.0754 73.0915 72.2127 72.9632 72.35C72.4447 72.907 71.907 73.4447 71.35 73.9632C71.2127 74.0915 71.0754 74.2198 70.9355 74.3482C70.6206 74.6305 70.3015 74.9069 69.9781 75.1772C69.7484 75.3671 69.5136 75.5494 69.2787 75.7329C68.8467 76.0751 68.4053 76.4041 67.9543 76.7198C67.6309 76.9482 67.3037 77.1728 66.97 77.3897C66.7377 77.5398 66.5067 77.6925 66.2706 77.8376C65.7226 78.1738 65.1656 78.4959 64.5946 78.8001C54.2434 84.338 41.6904 83.7616 31.8901 77.2986C31.6167 77.1189 31.3485 76.9328 31.0816 76.7454C30.8557 76.5876 30.6286 76.431 30.4078 76.2668C30.1409 76.0678 29.883 75.8612 29.6237 75.6572C29.2259 75.3415 28.8362 75.0176 28.4546 74.6857C28.2518 74.5086 28.0452 74.3328 27.8463 74.1505C27.6115 73.9349 27.383 73.7129 27.1546 73.4909C26.9659 73.3074 26.7773 73.1226 26.5938 72.9339C26.3764 72.7132 26.1626 72.4891 25.9521 72.2615C25.7545 72.0472 25.5671 71.829 25.3695 71.6096C25.1718 71.3901 25.0012 71.1925 24.8228 70.9781C24.4699 70.5534 24.1259 70.1222 23.7961 69.6794C23.7242 69.5832 23.6575 69.4831 23.5869 69.3868C23.3033 69.0018 23.0248 68.6014 22.7579 68.1997C22.6706 68.0714 22.5885 67.9341 22.5012 67.8019C22.2446 67.4092 22.0046 67.0127 21.771 66.6097C21.7056 66.498 21.6427 66.3877 21.5785 66.276C21.3039 65.7909 21.0395 65.3007 20.7905 64.8015L20.7533 64.7232C18.7468 60.6755 17.6206 56.2489 17.4487 51.7346C17.4321 51.3226 17.4167 50.9132 17.4167 50.5C17.4114 45.2332 18.7112 40.0471 21.1999 35.4054C21.5041 34.8344 21.8262 34.2774 22.1624 33.7294C22.3074 33.4933 22.4602 33.2623 22.6103 33.03C22.8272 32.6963 23.0518 32.3691 23.2802 32.0457C23.5967 31.5947 23.9257 31.1533 24.2671 30.7213C24.4506 30.4864 24.6328 30.2516 24.8228 30.0218C25.0923 29.6967 25.3687 29.3776 25.6518 29.0645C25.7801 28.9246 25.9085 28.7873 26.0368 28.65C26.5553 28.093 27.093 27.5553 27.65 27.0368C27.7873 26.9085 27.9246 26.7801 28.0645 26.6518C28.3784 26.3695 28.6976 26.0931 29.0218 25.8228C29.2516 25.6328 29.4864 25.4506 29.7213 25.2671C30.1533 24.9249 30.5947 24.5959 31.0457 24.2802C31.3691 24.0518 31.6963 23.8272 32.03 23.6103C32.2623 23.4602 32.4933 23.3074 32.7294 23.1624C33.2774 22.8262 33.8344 22.5041 34.4054 22.1999C39.0471 19.7112 44.2332 18.4114 49.5 18.4167H75.1667V33.8167H63.6167V33.8962C54.4155 26.0687 40.6112 27.1822 32.7835 36.3833C24.9559 45.5845 26.0694 59.3888 35.2706 67.2165C44.4717 75.0441 58.2761 73.9306 66.1038 64.7294C73.0545 56.5591 73.0545 44.5538 66.1038 36.3833H78.2954C80.467 40.7719 81.5923 45.6036 81.5833 50.5ZM68.75 50.5C68.75 61.1315 60.1315 69.75 49.5 69.75C38.8685 69.75 30.25 61.1315 30.25 50.5C30.25 39.8685 38.8685 31.25 49.5 31.25C60.1265 31.262 68.738 39.8735 68.75 50.5ZM85.4333 33.8167H77.7333V18.4167H85.4333V33.8167Z" fill="white" stroke="white"/>
<path d="M61.9448 49.4002C61.9332 49.2647 61.9169 49.13 61.9015 48.9954C61.8736 48.7752 61.839 48.556 61.8053 48.3377C61.7592 48.0743 61.7034 47.8146 61.6409 47.5579C61.5967 47.3742 61.5544 47.1906 61.5015 47.0079L61.4919 46.979C61.3899 46.6329 61.2697 46.2944 61.139 45.9607C61.1207 45.9146 61.1063 45.8646 61.087 45.8194C60.9457 45.4713 60.787 45.1328 60.6159 44.8001C60.6024 44.7732 60.5909 44.7444 60.5765 44.7175C60.3957 44.3732 60.1995 44.0444 59.9889 43.7155C59.9784 43.7001 59.9697 43.6838 59.9591 43.6674C59.7505 43.3501 59.5274 43.0443 59.2918 42.7472C59.2678 42.7213 59.2514 42.6953 59.2322 42.6722C59.0149 42.403 58.7841 42.1462 58.5466 41.8962C58.4995 41.8472 58.4572 41.7943 58.4091 41.7462C58.2072 41.5405 57.9927 41.3481 57.7764 41.1568C57.6802 41.0731 57.5937 40.9837 57.4966 40.902C57.3274 40.7606 57.1475 40.6337 56.9716 40.501C56.8177 40.3856 56.6696 40.2645 56.511 40.1568C56.3716 40.0606 56.2225 39.9799 56.0812 39.8914C55.8889 39.7731 55.7081 39.6481 55.5129 39.5414C55.4985 39.5327 55.4831 39.527 55.4687 39.5193C55.3917 39.477 55.309 39.4433 55.2312 39.4029C54.9561 39.2606 54.6792 39.1212 54.3946 39C54.2744 38.9481 54.1475 38.9039 54.0244 38.8596C53.7744 38.7635 53.5263 38.6673 53.2705 38.5837C53.1253 38.5375 52.9753 38.5039 52.8273 38.4635C52.5878 38.3971 52.3465 38.3289 52.1042 38.2769C51.9388 38.2414 51.7695 38.2192 51.6022 38.1904C51.3715 38.1519 51.1416 38.1106 50.9089 38.0846C50.7166 38.0625 50.5176 38.0548 50.3214 38.0413C50.1253 38.0279 49.9108 38.0135 49.7032 38.0106C49.6358 38.0106 49.5695 38 49.5012 38C49.3185 38 49.1397 38.0192 48.9589 38.0279C48.8147 38.0346 48.6704 38.0375 48.5252 38.049C48.206 38.074 47.8925 38.1144 47.581 38.1635C47.5108 38.174 47.4406 38.1827 47.3694 38.1952C47.0066 38.2593 46.6496 38.3381 46.2983 38.4317C46.2752 38.4375 46.2521 38.4404 46.23 38.4462L46.1963 38.4567C45.8207 38.5606 45.4527 38.6811 45.0925 38.8183L44.9963 38.851C44.6361 38.9914 44.2834 39.1475 43.9386 39.3193C43.9088 39.3346 43.879 39.3471 43.8501 39.3625C43.5126 39.5337 43.1857 39.7212 42.8674 39.9212C42.8309 39.9443 42.7944 39.9645 42.7588 39.9875C42.4588 40.1799 42.1693 40.3876 41.8876 40.6049C41.8357 40.6452 41.7809 40.6818 41.7299 40.7231C41.478 40.9231 41.2376 41.1366 41.003 41.3549C40.928 41.4241 40.851 41.4885 40.7789 41.5587C40.5808 41.751 40.3943 41.9568 40.2087 42.1626C40.1126 42.2703 40.0164 42.3722 39.9203 42.4818C39.7722 42.6588 39.6318 42.8463 39.4981 43.0309C39.3866 43.179 39.2693 43.3193 39.1645 43.477C39.0481 43.6463 38.9472 43.8261 38.8395 44.0021C38.7318 44.178 38.6318 44.3194 38.5404 44.4828C38.5337 44.4953 38.5289 44.5088 38.5221 44.5203C38.2991 44.9334 38.0993 45.3588 37.9241 45.7944C37.875 45.9146 37.8356 46.0357 37.7904 46.1569C37.6664 46.4925 37.5548 46.83 37.4587 47.1819C37.4212 47.3194 37.3856 47.456 37.3519 47.5944C37.2692 47.9444 37.2029 48.2993 37.149 48.6589C37.1298 48.7868 37.1058 48.9127 37.0913 49.0435C37.0326 49.5266 37.0022 50.0126 37 50.4993C37 50.8657 37.0221 51.232 37.0558 51.5984C37.0673 51.7339 37.0837 51.8686 37.099 52.0032C37.1269 52.2234 37.1615 52.4426 37.1952 52.6609C37.2414 52.9244 37.2971 53.184 37.3596 53.4407C37.4039 53.6244 37.4462 53.808 37.499 53.9907L37.5087 54.0196C37.6116 54.3667 37.7317 54.7061 37.8625 55.0398C37.8798 55.0859 37.8942 55.1359 37.9125 55.1783C38.0548 55.5283 38.2144 55.8696 38.3866 56.2033C38.4 56.2283 38.4106 56.2542 38.4231 56.2792C38.6058 56.6267 38.8035 56.9635 39.0164 57.2898C39.025 57.3033 39.0318 57.3168 39.0404 57.3293C39.251 57.6504 39.477 57.96 39.7135 58.261C39.7299 58.2812 39.7443 58.3024 39.7606 58.3226C39.9799 58.5956 40.2145 58.8562 40.4568 59.1101C40.4991 59.1553 40.5385 59.2062 40.5828 59.2485C40.7885 59.4591 41.0078 59.6553 41.2289 59.8505C41.3184 59.9303 41.403 60.0159 41.4953 60.0928C41.6693 60.2389 41.8559 60.3707 42.0386 60.5072C42.1857 60.6178 42.327 60.7351 42.4809 60.8389C42.6347 60.9428 42.778 61.0216 42.9261 61.114C43.1107 61.2284 43.2905 61.3505 43.4809 61.4553C43.4934 61.462 43.5069 61.4668 43.5184 61.4736C43.9315 61.6967 44.3569 61.8964 44.7925 62.0717C44.9127 62.1207 45.0338 62.1601 45.155 62.2053C45.4906 62.3294 45.8281 62.4409 46.18 62.5371C46.3175 62.5746 46.454 62.6101 46.5925 62.6438C46.9425 62.7265 47.2973 62.7928 47.657 62.8467C47.7848 62.8659 47.9108 62.89 48.0416 62.9044C48.5255 62.9645 49.0126 62.9963 49.5003 62.9996C49.8666 62.9996 50.233 62.9775 50.5993 62.9438C50.7349 62.9323 50.8695 62.9159 51.0041 62.9005C51.2243 62.8726 51.4436 62.838 51.6618 62.8044C51.9253 62.7582 52.1849 62.7024 52.4417 62.6399C52.6244 62.5957 52.808 62.5544 52.9898 62.5015L53.0186 62.4919C53.3648 62.3899 53.7032 62.2697 54.0369 62.139C54.0831 62.1207 54.1331 62.1063 54.1782 62.0871C54.5254 61.9467 54.8638 61.788 55.1946 61.6178L55.2802 61.5765C55.6225 61.3963 55.9546 61.2015 56.2764 60.9918C56.2946 60.9803 56.3129 60.9707 56.3312 60.9582C56.6456 60.7524 56.9475 60.5313 57.2418 60.2986C57.2687 60.2764 57.2985 60.2572 57.3254 60.2351C57.5899 60.0226 57.8408 59.7957 58.086 59.562C58.1408 59.511 58.1985 59.4658 58.2524 59.411C58.4514 59.2187 58.637 59.0062 58.8235 58.7976C58.9139 58.7014 59.0091 58.6052 59.0957 58.4985C59.2293 58.3379 59.3505 58.1668 59.4803 57.9995C59.6101 57.8322 59.7303 57.6802 59.8447 57.512C59.9284 57.3889 60.0005 57.2581 60.0803 57.1273C60.2082 56.9235 60.3438 56.7235 60.4649 56.511C60.4716 56.4985 60.4765 56.485 60.4832 56.4725C60.7061 56.0601 60.9056 55.6354 61.0803 55.2004C61.1294 55.0802 61.1688 54.9581 61.214 54.8369C61.3422 54.5017 61.4528 54.16 61.5457 53.8119C61.5832 53.6744 61.6188 53.5388 61.6524 53.4003C61.7351 53.0503 61.8015 52.6945 61.8553 52.334C61.8746 52.207 61.8986 52.082 61.913 51.9541C61.9705 51.4713 61.9997 50.9855 62.0005 50.4993C62.0005 50.133 61.9784 49.7666 61.9448 49.4002ZM55.309 46.004C55.3523 45.9492 55.3879 45.8896 55.4283 45.8329C55.4956 45.7367 55.5658 45.6482 55.6206 45.5502C55.6619 45.4838 55.6956 45.4127 55.7331 45.3434C55.784 45.2473 55.8379 45.1617 55.8821 45.0665C55.9167 44.9925 55.9437 44.9155 55.9735 44.8405C56.0129 44.7444 56.0542 44.653 56.0869 44.5521C56.1129 44.4761 56.1302 44.3963 56.1523 44.3184C56.1802 44.2222 56.211 44.1261 56.2331 44.0222C56.2504 43.9424 56.2591 43.8617 56.2716 43.7819C56.2889 43.6809 56.3081 43.5809 56.3177 43.479C56.3254 43.3963 56.3254 43.3145 56.3293 43.2318C56.3341 43.1299 56.3418 43.029 56.3398 42.9261C56.3398 42.8434 56.3283 42.7597 56.3225 42.6761C56.3168 42.5924 56.3158 42.5011 56.3043 42.4136C56.3331 42.4376 56.3591 42.4645 56.3869 42.4895C56.6873 42.7491 56.9727 43.0256 57.2418 43.3174C57.2966 43.3761 57.3495 43.4347 57.4024 43.4943C58.0014 44.1695 58.5125 44.9178 58.9235 45.7213C58.9447 45.7636 58.9639 45.8069 58.9851 45.8492C59.1722 46.2285 59.3359 46.6191 59.4755 47.0185C59.4861 47.0444 59.5005 47.0694 59.5053 47.0963L59.5034 47.1088L58.5389 48.3839C57.9926 49.1085 57.1386 49.5355 56.2312 49.5377H52.2215C52.2051 49.4916 52.184 49.4483 52.1657 49.4031L52.1465 49.357C52.132 49.3233 52.1205 49.2887 52.1042 49.255L54.9398 46.4194C55.0707 46.2882 55.194 46.1495 55.309 46.004ZM49.2849 39.9327C49.5599 39.927 49.8339 39.9327 50.107 39.9529C50.2445 39.9606 50.3839 39.9606 50.5205 39.9741C50.9052 40.01 51.2876 40.0678 51.6657 40.1472C51.7676 40.1683 51.8657 40.2 51.9667 40.2241C52.2551 40.2943 52.5436 40.3712 52.8244 40.4654C52.9542 40.5087 53.0801 40.5616 53.209 40.6058C53.4584 40.6995 53.7042 40.8023 53.9465 40.9145C54.0215 40.9491 54.0956 40.9856 54.1706 41.0222L54.3975 42.6126C54.5239 43.5111 54.2222 44.4168 53.5821 45.0598L50.7464 47.8954C50.7128 47.8791 50.6782 47.8675 50.6445 47.8531L50.5984 47.8339C50.5532 47.8156 50.5099 47.7944 50.4637 47.7781V43.2588C50.4612 42.9784 50.4342 42.6988 50.383 42.4232C50.3695 42.3462 50.3522 42.2703 50.3349 42.1943C50.2879 41.9851 50.2268 41.779 50.1522 41.578C50.1291 41.5155 50.1109 41.453 50.0859 41.3924C49.9819 41.1443 49.8574 40.9054 49.7137 40.6779C49.683 40.6308 49.6464 40.5876 49.6176 40.5404C49.4937 40.3604 49.3575 40.1891 49.2099 40.0279C49.1849 40 49.1656 39.9664 49.1397 39.9385C49.1849 39.9385 49.2349 39.9337 49.2849 39.9327ZM41.4857 43.6165V43.6184C41.7666 43.2939 42.0668 42.9865 42.3847 42.6982C42.4347 42.653 42.4809 42.602 42.5338 42.5626C43.263 41.9235 44.076 41.3869 44.9502 40.9674L44.9954 40.9462C45.4456 40.7324 45.9105 40.5511 46.3867 40.4039L46.9444 40.6828C47.9238 41.168 48.5421 42.1678 48.5387 43.2607V47.78C48.4925 47.7964 48.4493 47.8175 48.4041 47.8358L48.3579 47.855C48.3243 47.8694 48.2897 47.881 48.256 47.8973L45.4204 45.0617C45.213 44.859 44.9878 44.6756 44.7473 44.5136C44.7098 44.4876 44.6732 44.4607 44.6348 44.4357C44.403 44.2867 44.1588 44.1581 43.905 44.0511C43.8617 44.0328 43.8184 44.0165 43.7742 43.9992C43.511 43.8936 43.2392 43.8113 42.9617 43.753L42.9165 43.7463C42.6409 43.695 42.3613 43.6675 42.0809 43.6645C42.0578 43.6645 42.0347 43.6569 42.0107 43.6569C41.9866 43.6569 41.979 43.6569 41.9636 43.6569C41.8395 43.6569 41.7155 43.6684 41.5914 43.6799C41.5328 43.6799 41.4741 43.6799 41.4155 43.6915C41.4405 43.6645 41.4636 43.6415 41.4857 43.6165ZM39.1375 51.208V51.2147C39.0818 51.2791 39.0212 51.3407 38.9693 51.407C38.9433 51.1032 38.9231 50.8041 38.9231 50.4993C38.9242 50.1137 38.9463 49.7286 38.9895 49.3454C39 49.2493 39.0202 49.1531 39.0327 49.0627C39.0731 48.7743 39.1183 48.4858 39.1818 48.2079C39.2068 48.0925 39.2404 47.981 39.2693 47.8666C39.3347 47.6137 39.4068 47.3627 39.4904 47.1146C39.5337 46.9858 39.5818 46.8588 39.6308 46.73C39.7154 46.5079 39.8087 46.2886 39.9087 46.0723C39.9453 45.9925 39.9847 45.9127 40.0231 45.8338L41.6136 45.6069C42.512 45.4795 43.4183 45.7814 44.0607 46.4223L46.8964 49.2579C46.881 49.2906 46.8694 49.3252 46.855 49.3541L46.8339 49.4041C46.8156 49.4483 46.7944 49.4916 46.7791 49.5368H42.7694C42.5837 49.537 42.3981 49.548 42.2136 49.5695C42.1491 49.5772 42.0866 49.5935 42.0213 49.6031C41.903 49.6224 41.7838 49.6387 41.6674 49.6666C41.5953 49.6839 41.5251 49.7089 41.453 49.7301C41.3482 49.7599 41.2424 49.7868 41.1405 49.8262C41.0664 49.8531 40.9953 49.8878 40.9232 49.9224C40.827 49.9628 40.7308 49.9993 40.6347 50.0464C40.5607 50.0829 40.4914 50.1272 40.4193 50.1676C40.3318 50.2166 40.2424 50.2637 40.1578 50.3176C40.0731 50.3714 40.0203 50.4137 39.951 50.4666C39.8818 50.5195 39.7895 50.5791 39.7126 50.6426C39.6356 50.706 39.5866 50.757 39.5202 50.8147C39.4539 50.8724 39.3722 50.9464 39.3039 51.0176C39.2356 51.0887 39.1943 51.1426 39.1375 51.208ZM43.6905 54.9956V55.0023C43.6549 55.0475 43.6261 55.0984 43.5944 55.1427C43.5194 55.2456 43.4424 55.3475 43.3761 55.4561C43.3405 55.5129 43.3126 55.5744 43.2799 55.6331C43.2232 55.7292 43.1636 55.835 43.1146 55.9398C43.0828 56.0071 43.0597 56.0763 43.0319 56.1446C42.9895 56.2456 42.9453 56.3465 42.9097 56.4504C42.8857 56.5225 42.8694 56.5966 42.8492 56.6696C42.8194 56.7725 42.7867 56.8744 42.7645 56.9802C42.7482 57.0571 42.7395 57.135 42.727 57.2129C42.7097 57.3158 42.6905 57.4187 42.6799 57.5235C42.6722 57.6043 42.6722 57.686 42.6684 57.7677C42.6684 57.8706 42.6559 57.9725 42.6578 58.0745C42.6578 58.1591 42.6694 58.2427 42.6751 58.3274C42.6809 58.412 42.6818 58.5014 42.6934 58.5879C42.6674 58.5658 42.6434 58.5418 42.6184 58.5197C42.3143 58.2561 42.0253 57.9755 41.753 57.6793C41.7011 57.6235 41.6491 57.5668 41.5982 57.51C41.0001 56.8342 40.4896 56.0856 40.0789 55.2821C40.0578 55.2417 40.0385 55.1994 40.0183 55.1581C39.8312 54.7779 39.667 54.3868 39.527 53.9869C39.5174 53.9609 39.5068 53.9359 39.4981 53.909L40.4616 52.6147C41.0081 51.8903 41.862 51.4634 42.7694 51.4609H46.7791C46.7944 51.5061 46.8156 51.5493 46.8339 51.5936L46.855 51.6436C46.8694 51.6763 46.881 51.7109 46.8964 51.7397L44.0607 54.5754C43.9294 54.7083 43.8058 54.8486 43.6905 54.9956ZM50.231 61.039L50.2291 61.0457C49.8749 61.0712 49.5196 61.0779 49.1647 61.0659C49.0301 61.0659 48.8945 61.0553 48.7608 61.0457C48.4166 61.022 48.0743 60.9813 47.7339 60.9236C47.6493 60.9091 47.5627 60.9014 47.4791 60.8851C47.0561 60.8024 46.6387 60.6939 46.229 60.5601C46.1435 60.5322 46.0617 60.4976 45.9771 60.4639C45.6566 60.3499 45.3406 60.2201 45.029 60.0745C44.9617 60.0437 44.8963 60.012 44.83 59.9784L44.605 58.3841C44.4784 57.4856 44.7802 56.5798 45.4204 55.9369L48.256 53.1013C48.2897 53.1176 48.3243 53.1292 48.3589 53.1446L48.4041 53.1628C48.4483 53.1811 48.4925 53.2022 48.5387 53.2186V57.2302C48.5389 57.4159 48.5499 57.6015 48.5714 57.786C48.5791 57.8514 48.5954 57.9139 48.6051 57.9783C48.6243 58.0966 48.6406 58.2149 48.6685 58.3312C48.6858 58.4052 48.7118 58.4764 48.7329 58.5495C48.7627 58.6533 48.7897 58.7572 48.8291 58.8591C48.856 58.9331 48.8916 59.0043 48.9253 59.0783C48.9656 59.1745 49.0031 59.2706 49.0493 59.3668C49.0858 59.4408 49.1301 59.5101 49.1704 59.5822C49.2195 59.6697 49.2666 59.7601 49.3205 59.8447C49.3743 59.9293 49.4166 59.9832 49.4705 60.0524C49.5243 60.1216 49.583 60.213 49.6445 60.2889C49.706 60.3649 49.7608 60.4168 49.8195 60.4812C49.8782 60.5457 49.9493 60.6284 50.0205 60.6966C50.0916 60.7649 50.1503 60.8101 50.2128 60.8668C50.2753 60.9236 50.3387 60.9822 50.4051 61.0341C50.3464 61.0351 50.2878 61.0351 50.231 61.039ZM50.3868 50.8734C50.3536 50.9355 50.3143 50.9941 50.2695 51.0484C50.208 51.1339 50.133 51.2089 50.0474 51.2705C49.9932 51.3153 49.9345 51.3546 49.8724 51.3878C49.6344 51.4877 49.3661 51.4877 49.1281 51.3878C49.066 51.3546 49.0073 51.3153 48.9531 51.2705C48.8742 51.2146 48.8045 51.1468 48.7464 51.0695C48.6946 51.011 48.6501 50.9464 48.6137 50.8772C48.5138 50.6392 48.5138 50.3709 48.6137 50.133C48.6494 50.0605 48.694 49.9926 48.7464 49.931V49.9329C48.8045 49.8557 48.8742 49.7879 48.9531 49.732C49.0073 49.6871 49.066 49.6478 49.1281 49.6147C49.3661 49.5148 49.6344 49.5148 49.8724 49.6147C49.9345 49.6478 49.9932 49.6871 50.0474 49.732C50.133 49.7935 50.208 49.8685 50.2695 49.9541C50.3143 50.0083 50.3536 50.067 50.3868 50.1291C50.4867 50.3671 50.4867 50.6354 50.3868 50.8734ZM57.5062 57.3908L57.5043 57.3975C57.2447 57.6979 56.9682 57.9832 56.6764 58.2524C56.6177 58.3072 56.5591 58.36 56.4994 58.4129C55.8254 59.0075 55.0791 59.5148 54.2782 59.9226L54.1504 59.9841C53.7709 60.1713 53.3805 60.335 52.9811 60.4745C52.9551 60.4841 52.9301 60.4947 52.9032 60.5034L51.6157 59.538C50.891 58.9917 50.4641 58.1377 50.4618 57.2302V53.2205C50.508 53.2042 50.5512 53.183 50.5964 53.1647L50.6426 53.1455C50.6762 53.1311 50.7109 53.1196 50.7445 53.1032L53.5802 55.9388C53.7875 56.1421 54.0127 56.3261 54.2532 56.4889L54.359 56.5629C54.5908 56.7119 54.8349 56.8405 55.0888 56.9475C55.1331 56.9668 55.1763 56.9841 55.2206 57.0014C55.4804 57.105 55.7487 57.1861 56.0225 57.2437C56.0504 57.2494 56.0792 57.2523 56.1071 57.2571C56.3849 57.31 56.6668 57.338 56.9495 57.3408C56.9629 57.3408 56.9754 57.3408 56.9879 57.3408H57.0052C57.1981 57.3406 57.3908 57.3283 57.5822 57.3043C57.5581 57.337 57.5312 57.3629 57.5062 57.3908ZM60.0091 51.6647C59.9986 51.7609 59.9784 51.857 59.9649 51.9532C59.9255 52.2416 59.8803 52.5215 59.8178 52.8013C59.7918 52.9186 59.7582 53.033 59.7284 53.1484C59.663 53.3994 59.5928 53.6484 59.5091 53.8936C59.4649 54.0244 59.413 54.1532 59.3668 54.2782C59.2822 54.4994 59.1899 54.7167 59.0908 54.9321C59.0533 55.0129 59.0139 55.0917 58.9755 55.1715L57.385 55.3984C56.4867 55.5243 55.5812 55.2226 54.9379 54.583L52.1022 51.7474C52.1186 51.7138 52.1301 51.6791 52.1445 51.6455L52.1638 51.5993C52.1821 51.5541 52.2032 51.5109 52.2196 51.4647H56.2312C56.4169 51.4645 56.6025 51.4535 56.787 51.432C56.8523 51.4243 56.9148 51.408 56.9793 51.3984C57.0975 51.3791 57.2158 51.3628 57.3322 51.3349C57.4062 51.3176 57.4774 51.2916 57.5504 51.2705C57.6543 51.2407 57.7581 51.2137 57.8601 51.1743C57.9341 51.1474 58.0053 51.1118 58.0793 51.0782C58.1754 51.0378 58.2716 51.0003 58.3678 50.9541C58.4418 50.9176 58.511 50.8734 58.5831 50.833C58.6706 50.7839 58.761 50.7368 58.8457 50.683C58.9303 50.6291 58.9841 50.5868 59.0534 50.533C59.1226 50.4791 59.2139 50.4205 59.2899 50.3589C59.3659 50.2974 59.4178 50.2426 59.4822 50.1839C59.5466 50.1253 59.6293 50.0541 59.6976 49.9829C59.7659 49.9118 59.8072 49.856 59.8639 49.7906L59.862 49.8012C59.9178 49.7358 59.9774 49.6752 60.0293 49.6089C60.0553 49.907 60.0755 50.206 60.0755 50.5108C60.0744 50.8964 60.0523 51.2815 60.0091 51.6647Z" fill="white" stroke="white"/>
</g>
<defs>
<clipPath id="clip0">
<rect width="77" height="77" fill="white" transform="translate(11 12)"/>
</clipPath>
</defs>
</svg>
