<svg width="53" height="53" viewBox="0 0 53 53" fill="none" xmlns="http://www.w3.org/2000/svg">
<path d="M51.2333 0V2.65H26.5C22.7664 2.64724 19.085 3.52715 15.756 5.21785L9.71667 3.40437C7.03641 2.59844 4.2103 4.11788 3.40437 6.79813C3.11817 7.74993 3.11817 8.76487 3.40437 9.71667L5.21785 15.7587C3.52748 19.0867 2.64768 22.7673 2.65 26.5C2.65 26.765 2.66148 27.0238 2.67032 27.2844C2.66137 27.3169 2.65453 27.35 2.65 27.3833V51.2333H0V53H17.6667V51.2333H15.0167V47.3952C21.9056 51.1933 30.2271 51.338 37.244 47.7821L43.2833 49.5956C45.9636 50.4016 48.7897 48.8821 49.5956 46.2019C49.8818 45.2501 49.8818 44.2351 49.5956 43.2833L47.7821 37.2413C49.4725 33.9133 50.3523 30.2327 50.35 26.5C50.347 23.1521 49.6419 19.8419 48.2804 16.7833H51.2333V19.4333H53V0H51.2333ZM5.09772 9.2061C4.57191 7.46306 5.55871 5.62374 7.30185 5.09794C7.92251 4.91067 8.58456 4.91067 9.20522 5.09772L13.6272 6.42272C13.492 6.51105 13.3622 6.59938 13.2314 6.68772L13.1078 6.77163C10.6148 8.46167 8.46609 10.6104 6.77605 13.1034L6.69213 13.227C6.6038 13.3595 6.51017 13.492 6.42713 13.6228L5.09772 9.2061ZM13.25 51.2333H4.41667V49.4667H13.25V51.2333ZM4.41667 47.7V35.495C4.63573 36.0308 4.87368 36.5573 5.1304 37.0744L5.16838 37.1477C5.4039 37.6188 5.65598 38.0828 5.92452 38.5398C5.95543 38.592 5.9837 38.6441 6.01285 38.6962C6.27962 39.1431 6.56085 39.5804 6.85643 40.0079C6.92975 40.1139 7.0066 40.2182 7.08168 40.3242C7.3172 40.6563 7.56255 40.9819 7.8175 41.3011C7.90583 41.4089 7.98445 41.5175 8.07102 41.6235C8.36693 41.9839 8.6761 42.3302 8.99233 42.6756C9.12572 42.8205 9.26352 42.9618 9.40132 43.104C9.64688 43.3567 9.89808 43.604 10.1548 43.846C10.3191 44.0015 10.4843 44.1552 10.6539 44.3054C10.9484 44.5686 11.2496 44.8239 11.5575 45.0712C11.7112 45.1949 11.8658 45.3168 12.023 45.4369C12.3993 45.7249 12.781 46.0058 13.1714 46.2716C13.197 46.2893 13.22 46.3087 13.2456 46.3255L13.25 47.7H4.41667ZM47.9023 43.7939C48.4267 45.5385 47.4374 47.3777 45.693 47.9021C45.074 48.0881 44.4139 48.0882 43.7948 47.9023L39.3728 46.5773C39.508 46.4889 39.6378 46.4006 39.7685 46.3123L39.8922 46.2284C42.3852 44.5383 44.5339 42.3896 46.2239 39.8966L46.3079 39.773C46.3962 39.6405 46.4898 39.508 46.5729 39.3772L47.9023 43.7939ZM48.5833 26.5C48.587 30.1252 47.6923 33.6949 45.9793 36.8898C45.7699 37.2829 45.5482 37.6662 45.3168 38.0434C45.2169 38.2059 45.1118 38.3649 45.0085 38.5248C44.8592 38.7545 44.7046 38.9797 44.5474 39.2023C44.3295 39.5121 44.1031 39.8159 43.8681 40.1139C43.7418 40.2756 43.6163 40.4372 43.4856 40.5954C43.3001 40.8192 43.1099 41.0388 42.915 41.2543C42.8266 41.3506 42.7383 41.4451 42.65 41.5396C42.2931 41.923 41.923 42.2931 41.5396 42.65C41.4451 42.7383 41.3506 42.8266 41.2543 42.915C41.0376 43.1093 40.818 43.2996 40.5954 43.4856C40.4372 43.6163 40.2756 43.7418 40.1139 43.8681C39.8166 44.1036 39.5127 44.3301 39.2023 44.5474C38.9797 44.7046 38.7545 44.8592 38.5248 45.0085C38.3649 45.1118 38.2059 45.2169 38.0434 45.3168C37.6662 45.5482 37.2829 45.7699 36.8898 45.9793C29.7649 49.7911 21.1246 49.3943 14.3789 44.9458C14.1907 44.8221 14.0061 44.694 13.8224 44.565C13.6669 44.4564 13.5106 44.3486 13.3587 44.2356C13.1749 44.0986 12.9974 43.9564 12.8189 43.816C12.5451 43.5987 12.2769 43.3758 12.0142 43.1473C11.8746 43.0254 11.7324 42.9044 11.5955 42.779C11.4339 42.6306 11.2766 42.4777 11.1194 42.3249C10.9896 42.1986 10.8597 42.0714 10.7334 41.9415C10.5838 41.7896 10.4366 41.6354 10.2917 41.4787C10.1557 41.3312 10.0267 41.181 9.89068 41.03C9.75465 40.8789 9.63717 40.7429 9.51438 40.5954C9.27147 40.303 9.03473 40.0062 8.80772 39.7014C8.75825 39.6352 8.71232 39.5663 8.66373 39.5C8.46852 39.235 8.27683 38.9594 8.0931 38.6829C8.03303 38.5946 7.9765 38.5001 7.91643 38.4091C7.73977 38.1388 7.57458 37.8659 7.41382 37.5885C7.36877 37.5116 7.32548 37.4357 7.28132 37.3588C7.09228 37.0249 6.91032 36.6875 6.73895 36.3439L6.71333 36.29C5.33224 33.5039 4.55701 30.457 4.43875 27.3498C4.42727 27.0662 4.41667 26.7844 4.41667 26.5C4.41302 22.8748 5.30773 19.3051 7.02073 16.1102C7.23008 15.7172 7.4518 15.3338 7.68323 14.9566C7.78305 14.7941 7.88817 14.6351 7.99152 14.4752C8.1408 14.2455 8.29538 14.0203 8.45262 13.7977C8.67047 13.4873 8.89693 13.1834 9.1319 12.8861C9.25822 12.7244 9.38365 12.5628 9.51438 12.4047C9.69988 12.1808 9.89013 11.9612 10.085 11.7457C10.1733 11.6494 10.2617 11.5549 10.35 11.4604C10.7069 11.077 11.077 10.7069 11.4604 10.35C11.5549 10.2617 11.6494 10.1733 11.7457 10.085C11.9618 9.89068 12.1815 9.70044 12.4047 9.51438C12.5628 9.38365 12.7244 9.25822 12.8861 9.1319C13.1834 8.89638 13.4873 8.66992 13.7977 8.45262C14.0203 8.29538 14.2455 8.1408 14.4752 7.99152C14.6351 7.88817 14.7941 7.78305 14.9566 7.68323C15.3338 7.4518 15.7172 7.23008 16.1102 7.02073C19.3051 5.30773 22.8748 4.41302 26.5 4.41667H44.1667V15.0167H36.2167V15.0714C29.8834 9.68365 20.3817 10.4501 14.9938 16.7833C9.60603 23.1166 10.3724 32.6183 16.7057 38.0062C23.039 43.394 32.5407 42.6276 37.9286 36.2943C42.7128 30.6705 42.7128 22.4072 37.9286 16.7833H46.3202C47.8149 19.804 48.5895 23.1298 48.5833 26.5ZM39.75 26.5C39.75 33.8178 33.8178 39.75 26.5 39.75C19.1822 39.75 13.25 33.8178 13.25 26.5C13.25 19.1822 19.1822 13.25 26.5 13.25C33.8143 13.2583 39.7417 19.1857 39.75 26.5ZM51.2333 15.0167H45.9333V4.41667H51.2333V15.0167Z" fill="black"/>
<path d="M37.932 25.4904C37.9214 25.3658 37.9064 25.2422 37.8923 25.1185C37.8667 24.9162 37.8349 24.7148 37.8039 24.5143C37.7615 24.2723 37.7103 24.0338 37.6529 23.7979C37.6123 23.6292 37.5734 23.4605 37.5248 23.2926L37.516 23.2661C37.4223 22.9481 37.3119 22.6372 37.1918 22.3307C37.175 22.2883 37.1618 22.2424 37.1441 22.2008C37.0142 21.8811 36.8685 21.5701 36.7113 21.2645C36.6989 21.2398 36.6883 21.2133 36.675 21.1885C36.509 20.8723 36.3288 20.5702 36.1353 20.2681C36.1256 20.254 36.1177 20.239 36.1079 20.2239C35.9163 19.9324 35.7113 19.6515 35.4949 19.3786C35.4728 19.3547 35.4578 19.3309 35.4401 19.3097C35.2405 19.0624 35.0285 18.8265 34.8103 18.5968C34.767 18.5518 34.7282 18.5032 34.684 18.459C34.4985 18.27 34.3015 18.0933 34.1028 17.9176C34.0144 17.8407 33.935 17.7586 33.8457 17.6835C33.6903 17.5536 33.5251 17.437 33.3634 17.3151C33.2221 17.2091 33.0861 17.0978 32.9403 16.9989C32.8122 16.9106 32.6753 16.8364 32.5455 16.7551C32.3688 16.6464 32.2027 16.5316 32.0234 16.4336C32.0102 16.4256 31.996 16.4203 31.9828 16.4132C31.9121 16.3744 31.8361 16.3435 31.7646 16.3064C31.512 16.1756 31.2576 16.0475 30.9961 15.9362C30.8857 15.8885 30.7691 15.8479 30.656 15.8073C30.4264 15.7189 30.1985 15.6306 29.9635 15.5538C29.8301 15.5114 29.6923 15.4804 29.5563 15.4433C29.3363 15.3824 29.1146 15.3197 28.892 15.272C28.7401 15.2393 28.5846 15.219 28.4309 15.1925C28.2189 15.1571 28.0078 15.1192 27.794 15.0953C27.6173 15.075 27.4345 15.0679 27.2543 15.0556C27.0741 15.0432 26.8771 15.0299 26.6863 15.0273C26.6245 15.0273 26.5635 15.0176 26.5008 15.0176C26.333 15.0176 26.1687 15.0352 26.0026 15.0432C25.8701 15.0494 25.7376 15.052 25.6042 15.0626C25.311 15.0856 25.023 15.1227 24.7368 15.1677C24.6723 15.1775 24.6078 15.1854 24.5425 15.1969C24.2091 15.2557 23.8812 15.3282 23.5584 15.4142C23.5372 15.4195 23.516 15.4221 23.4957 15.4274L23.4648 15.4372C23.1197 15.5326 22.7817 15.6433 22.4507 15.7693L22.3624 15.7993C22.0315 15.9283 21.7075 16.0717 21.3907 16.2295C21.3634 16.2436 21.336 16.2551 21.3095 16.2693C20.9994 16.4265 20.6991 16.5987 20.4067 16.7825C20.3731 16.8037 20.3396 16.8222 20.3069 16.8434C20.0313 17.0201 19.7654 17.2109 19.5066 17.4105C19.4589 17.4476 19.4085 17.4812 19.3617 17.5192C19.1303 17.7029 18.9095 17.899 18.6939 18.0995C18.625 18.1631 18.5544 18.2223 18.4881 18.2868C18.3061 18.4635 18.1348 18.6525 17.9643 18.8415C17.876 18.9405 17.7876 19.0341 17.6993 19.1348C17.5633 19.2973 17.4343 19.4696 17.3115 19.6392C17.209 19.7752 17.1013 19.9042 17.005 20.049C16.8981 20.2045 16.8054 20.3697 16.7064 20.5313C16.6075 20.693 16.5156 20.8228 16.4317 20.973C16.4255 20.9845 16.4211 20.9969 16.4149 21.0075C16.21 21.387 16.0265 21.7777 15.8655 22.1779C15.8204 22.2883 15.7842 22.3996 15.7427 22.5109C15.6288 22.8192 15.5263 23.1292 15.438 23.4525C15.4035 23.5788 15.3708 23.7043 15.3399 23.8315C15.2639 24.153 15.203 24.479 15.1535 24.8093C15.1359 24.9268 15.1138 25.0425 15.1005 25.1627C15.0465 25.6064 15.0186 26.053 15.0166 26.5C15.0166 26.8366 15.0369 27.1731 15.0678 27.5097C15.0784 27.6342 15.0935 27.7579 15.1076 27.8816C15.1332 28.0838 15.165 28.2852 15.1959 28.4858C15.2383 28.7278 15.2896 28.9663 15.347 29.2021C15.3876 29.3709 15.4265 29.5396 15.4751 29.7074L15.4839 29.7339C15.5784 30.0528 15.6888 30.3646 15.809 30.6711C15.8249 30.7135 15.8381 30.7595 15.8549 30.7983C15.9856 31.1199 16.1323 31.4334 16.2904 31.74C16.3027 31.7629 16.3125 31.7868 16.3239 31.8097C16.4918 32.129 16.6734 32.4383 16.869 32.7381C16.8769 32.7505 16.8831 32.7629 16.891 32.7743C17.0845 33.0694 17.2921 33.3538 17.5094 33.6303C17.5244 33.6488 17.5376 33.6683 17.5527 33.6868C17.7541 33.9377 17.9696 34.1771 18.1922 34.4103C18.2311 34.4518 18.2673 34.4986 18.3079 34.5375C18.4969 34.7309 18.6983 34.9111 18.9015 35.0904C18.9837 35.1638 19.0614 35.2424 19.1462 35.313C19.3061 35.4473 19.4774 35.5683 19.6453 35.6938C19.7804 35.7953 19.9103 35.9031 20.0516 35.9985C20.1929 36.0939 20.3246 36.1663 20.4606 36.2511C20.6302 36.3563 20.7954 36.4684 20.9703 36.5647C20.9818 36.5709 20.9941 36.5753 21.0047 36.5815C21.3842 36.7864 21.775 36.97 22.1751 37.1309C22.2856 37.176 22.3969 37.2122 22.5082 37.2537C22.8164 37.3677 23.1265 37.4701 23.4498 37.5585C23.5761 37.5929 23.7015 37.6256 23.8287 37.6565C24.1503 37.7325 24.4762 37.7934 24.8066 37.8429C24.9241 37.8606 25.0398 37.8827 25.1599 37.8959C25.6045 37.9511 26.052 37.9804 26.4999 37.9834C26.8365 37.9834 27.173 37.963 27.5096 37.9321C27.6341 37.9215 27.7578 37.9065 27.8815 37.8924C28.0837 37.8668 28.2852 37.835 28.4857 37.804C28.7277 37.7616 28.9662 37.7104 29.202 37.653C29.3699 37.6124 29.5386 37.5744 29.7056 37.5258L29.732 37.517C30.05 37.4233 30.361 37.3129 30.6675 37.1928C30.7099 37.176 30.7558 37.1627 30.7974 37.1451C31.1162 37.0161 31.4272 36.8704 31.731 36.714L31.8097 36.676C32.1241 36.5105 32.4292 36.3315 32.7248 36.139C32.7416 36.1284 32.7583 36.1195 32.7751 36.108C33.064 35.919 33.3413 35.7158 33.6116 35.5021C33.6364 35.4818 33.6638 35.4641 33.6885 35.4438C33.9314 35.2486 34.162 35.0401 34.3872 34.8254C34.4376 34.7786 34.4906 34.7371 34.54 34.6868C34.7229 34.5101 34.8934 34.3149 35.0647 34.1232C35.1478 34.0349 35.2352 33.9465 35.3147 33.8485C35.4375 33.701 35.5488 33.5437 35.6681 33.39C35.7873 33.2363 35.8977 33.0968 36.0028 32.9422C36.0797 32.8291 36.1459 32.709 36.2192 32.5888C36.3367 32.4016 36.4613 32.2178 36.5726 32.0226C36.5788 32.0111 36.5832 31.9988 36.5894 31.9873C36.7942 31.6085 36.9774 31.2182 37.1379 30.8186C37.183 30.7082 37.2192 30.596 37.2607 30.4847C37.3785 30.1768 37.4801 29.8629 37.5654 29.5431C37.5999 29.4168 37.6326 29.2922 37.6635 29.165C37.7395 28.8435 37.8004 28.5167 37.8499 28.1854C37.8675 28.0688 37.8896 27.954 37.9029 27.8365C37.9557 27.393 37.9825 26.9467 37.9833 26.5C37.9833 26.1635 37.9629 25.8269 37.932 25.4904ZM31.8361 22.3704C31.8759 22.3201 31.9086 22.2653 31.9457 22.2132C32.0075 22.1249 32.072 22.0436 32.1224 21.9535C32.1603 21.8926 32.1912 21.8272 32.2257 21.7636C32.2725 21.6753 32.322 21.5966 32.3626 21.5092C32.3944 21.4412 32.4191 21.3705 32.4465 21.3016C32.4827 21.2133 32.5207 21.1294 32.5508 21.0366C32.5746 20.9668 32.5905 20.8935 32.6108 20.822C32.6364 20.7336 32.6647 20.6453 32.685 20.5499C32.7009 20.4766 32.7089 20.4024 32.7204 20.3291C32.7363 20.2363 32.7539 20.1444 32.7628 20.0508C32.7698 19.9748 32.7698 19.8998 32.7734 19.8238C32.7778 19.7302 32.7848 19.6374 32.7831 19.5429C32.7831 19.4669 32.7725 19.3901 32.7672 19.3132C32.7619 19.2364 32.761 19.1525 32.7504 19.0721C32.7769 19.0942 32.8007 19.1189 32.8264 19.1419C33.1023 19.3804 33.3644 19.6343 33.6116 19.9024C33.662 19.9563 33.7106 20.0102 33.7592 20.0649C34.3095 20.6852 34.779 21.3726 35.1566 22.1107C35.176 22.1496 35.1937 22.1894 35.2131 22.2282C35.385 22.5767 35.5354 22.9354 35.6636 23.3024C35.6733 23.3262 35.6866 23.3492 35.691 23.3739L35.6892 23.3854L34.8033 24.5567C34.3014 25.2224 33.5169 25.6146 32.6833 25.6167H28.9998C28.9848 25.5743 28.9653 25.5345 28.9485 25.493L28.9309 25.4506C28.9176 25.4197 28.907 25.3879 28.892 25.357L31.497 22.752C31.6172 22.6315 31.7305 22.5041 31.8361 22.3704ZM26.3021 16.7931C26.5547 16.7878 26.8065 16.7931 27.0573 16.8116C27.1836 16.8187 27.3117 16.8187 27.4372 16.8311C27.7906 16.8641 28.1418 16.9172 28.4892 16.9901C28.5828 17.0095 28.6729 17.0386 28.7657 17.0607C29.0307 17.1252 29.2957 17.1959 29.5536 17.2824C29.6729 17.3222 29.7886 17.3708 29.9069 17.4114C30.1361 17.4974 30.3619 17.5919 30.5845 17.695C30.6534 17.7268 30.7214 17.7603 30.7903 17.7939L30.9987 19.2549C31.1149 20.0803 30.8378 20.9124 30.2497 21.503L27.6447 24.108C27.6138 24.0929 27.582 24.0823 27.5511 24.0691L27.5087 24.0514C27.4672 24.0346 27.4274 24.0152 27.385 24.0002V19.8485C27.3827 19.5909 27.3579 19.3341 27.3108 19.0809C27.2985 19.0102 27.2826 18.9405 27.2667 18.8707C27.2235 18.6784 27.1674 18.4892 27.0988 18.3045C27.0776 18.247 27.0608 18.1896 27.0379 18.134C26.9424 17.9061 26.828 17.6866 26.696 17.4777C26.6678 17.4344 26.6342 17.3946 26.6077 17.3513C26.4939 17.1859 26.3688 17.0286 26.2332 16.8805C26.2102 16.8549 26.1925 16.824 26.1687 16.7984C26.2102 16.7984 26.2561 16.794 26.3021 16.7931ZM19.1374 20.1771V20.1789C19.3954 19.8808 19.6712 19.5984 19.9633 19.3335C20.0092 19.292 20.0516 19.2452 20.1002 19.209C20.7701 18.6219 21.5169 18.1289 22.32 17.7435L22.3615 17.7241C22.7751 17.5277 23.2022 17.3612 23.6397 17.2259L24.152 17.4821C25.0517 17.9278 25.6197 18.8463 25.6166 19.8503V24.002C25.5742 24.017 25.5345 24.0364 25.4929 24.0532L25.4505 24.0709C25.4196 24.0841 25.3878 24.0947 25.3569 24.1097L22.752 21.5048C22.5615 21.3186 22.3546 21.1501 22.1336 21.0013C22.0992 20.9774 22.0656 20.9527 22.0303 20.9297C21.8174 20.7928 21.593 20.6747 21.3598 20.5764C21.3201 20.5596 21.2803 20.5446 21.2397 20.5287C20.9979 20.4317 20.7482 20.3561 20.4933 20.3026L20.4518 20.2964C20.1986 20.2492 19.9417 20.2241 19.6841 20.2213C19.6629 20.2213 19.6417 20.2142 19.6197 20.2142C19.5976 20.2142 19.5905 20.2142 19.5764 20.2142C19.4624 20.2142 19.3485 20.2248 19.2345 20.2354C19.1806 20.2354 19.1268 20.2354 19.0729 20.246C19.0958 20.2213 19.117 20.2001 19.1374 20.1771ZM16.9803 27.151V27.1572C16.929 27.2164 16.8734 27.2729 16.8257 27.3339C16.8018 27.0548 16.7833 26.78 16.7833 26.5C16.7843 26.1458 16.8046 25.792 16.8442 25.44C16.8539 25.3517 16.8725 25.2634 16.884 25.1803C16.9211 24.9153 16.9626 24.6503 17.0209 24.395C17.0439 24.289 17.0748 24.1866 17.1013 24.0815C17.1613 23.8491 17.2276 23.6186 17.3044 23.3907C17.3442 23.2723 17.3884 23.1557 17.4334 23.0374C17.5111 22.8333 17.5968 22.6319 17.6887 22.4332C17.7223 22.3598 17.7585 22.2865 17.7938 22.2141L19.2548 22.0056C20.0802 21.8886 20.9127 22.166 21.5029 22.7547L24.1079 25.3596C24.0937 25.3897 24.0831 25.4215 24.0699 25.448L24.0504 25.4939C24.0337 25.5345 24.0142 25.5743 24.0001 25.6158H20.3166C20.146 25.616 19.9755 25.6261 19.806 25.6458C19.7469 25.6529 19.6894 25.6679 19.6294 25.6768C19.5207 25.6944 19.4112 25.7094 19.3043 25.7351C19.2381 25.751 19.1736 25.7739 19.1073 25.7934C19.011 25.8207 18.9139 25.8455 18.8202 25.8817C18.7522 25.9064 18.6869 25.9382 18.6206 25.97C18.5323 26.0071 18.4439 26.0407 18.3556 26.084C18.2876 26.1175 18.224 26.1582 18.1577 26.1953C18.0774 26.2403 17.9952 26.2836 17.9175 26.3331C17.8397 26.3825 17.7912 26.4214 17.7276 26.47C17.664 26.5186 17.5792 26.5733 17.5085 26.6316C17.4378 26.6899 17.3928 26.7368 17.3318 26.7898C17.2709 26.8428 17.1958 26.9108 17.1331 26.9761C17.0704 27.0415 17.0324 27.091 16.9803 27.151ZM21.1628 30.6305V30.6367C21.1302 30.6782 21.1037 30.725 21.0745 30.7656C21.0056 30.8602 20.9349 30.9538 20.874 31.0536C20.8413 31.1057 20.8157 31.1623 20.7857 31.2161C20.7335 31.3045 20.6788 31.4016 20.6337 31.4979C20.6046 31.5598 20.5834 31.6234 20.5578 31.6861C20.5189 31.7788 20.4783 31.8716 20.4456 31.967C20.4235 32.0332 20.4085 32.1012 20.3899 32.1684C20.3625 32.2629 20.3325 32.3565 20.3122 32.4537C20.2972 32.5244 20.2892 32.5959 20.2777 32.6675C20.2618 32.762 20.2442 32.8565 20.2345 32.9528C20.2274 33.027 20.2274 33.1021 20.2239 33.1771C20.2239 33.2717 20.2124 33.3653 20.2141 33.4589C20.2141 33.5367 20.2247 33.6135 20.23 33.6912C20.2353 33.769 20.2362 33.8511 20.2468 33.9306C20.223 33.9103 20.2009 33.8882 20.1779 33.8679C19.8986 33.6258 19.6331 33.3681 19.3829 33.0959C19.3352 33.0446 19.2875 32.9925 19.2407 32.9404C18.6913 32.3195 18.2223 31.6319 17.845 30.8937C17.8256 30.8566 17.8079 30.8178 17.7894 30.7798C17.6175 30.4305 17.4666 30.0712 17.338 29.7039C17.3292 29.68 17.3195 29.6571 17.3115 29.6323L18.1966 28.4434C18.6987 27.7779 19.4831 27.3857 20.3166 27.3834H24.0001C24.0142 27.4249 24.0337 27.4646 24.0504 27.5053L24.0699 27.5512C24.0831 27.5812 24.0937 27.613 24.1079 27.6395L21.5029 30.2445C21.3822 30.3666 21.2687 30.4955 21.1628 30.6305ZM27.1713 36.1822L27.1695 36.1884C26.8441 36.2118 26.5177 36.218 26.1916 36.207C26.068 36.207 25.9434 36.1973 25.8207 36.1884C25.5044 36.1667 25.19 36.1292 24.8773 36.0762C24.7995 36.063 24.72 36.0559 24.6432 36.0409C24.2546 35.9649 23.8711 35.8652 23.4948 35.7423C23.4162 35.7167 23.3411 35.6849 23.2634 35.654C22.9689 35.5492 22.6786 35.43 22.3924 35.2963C22.3306 35.268 22.2705 35.2388 22.2096 35.2079L22.0029 33.7434C21.8866 32.918 22.1639 32.0859 22.752 31.4953L25.3569 28.8903C25.3878 28.9053 25.4196 28.9159 25.4514 28.9301L25.4929 28.9469C25.5336 28.9636 25.5742 28.9831 25.6166 28.9981V32.6834C25.6168 32.854 25.6269 33.0244 25.6466 33.1939C25.6537 33.254 25.6687 33.3114 25.6776 33.3706C25.6952 33.4792 25.7102 33.5879 25.7359 33.6948C25.7518 33.7628 25.7756 33.8282 25.795 33.8953C25.8224 33.9907 25.8472 34.0861 25.8834 34.1797C25.9081 34.2477 25.9408 34.3131 25.9717 34.3811C26.0088 34.4695 26.0433 34.5578 26.0857 34.6461C26.1192 34.7141 26.1598 34.7777 26.1969 34.844C26.242 34.9244 26.2853 35.0074 26.3347 35.0851C26.3842 35.1629 26.4231 35.2123 26.4725 35.2759C26.522 35.3395 26.5759 35.4235 26.6324 35.4932C26.689 35.563 26.7393 35.6107 26.7932 35.6699C26.8471 35.7291 26.9125 35.8051 26.9778 35.8678C27.0432 35.9305 27.0971 35.972 27.1545 36.0241C27.2119 36.0762 27.2702 36.1301 27.3311 36.1778C27.2773 36.1787 27.2234 36.1787 27.1713 36.1822ZM27.3144 26.8436C27.2839 26.9007 27.2478 26.9546 27.2066 27.0044C27.1501 27.083 27.0812 27.1519 27.0026 27.2085C26.9528 27.2496 26.8989 27.2858 26.8418 27.3162C26.6232 27.408 26.3767 27.408 26.1581 27.3162C26.101 27.2858 26.0471 27.2496 25.9973 27.2085C25.9248 27.1571 25.8607 27.0948 25.8074 27.0238C25.7598 26.9701 25.719 26.9108 25.6855 26.8472C25.5937 26.6286 25.5937 26.3821 25.6855 26.1635C25.7183 26.0969 25.7593 26.0345 25.8074 25.978V25.9797C25.8607 25.9087 25.9248 25.8465 25.9973 25.7951C26.0471 25.7539 26.101 25.7178 26.1581 25.6874C26.3767 25.5956 26.6232 25.5956 26.8418 25.6874C26.8989 25.7178 26.9528 25.7539 27.0026 25.7951C27.0812 25.8517 27.1501 25.9206 27.2066 25.9992C27.2478 26.049 27.2839 26.1029 27.3144 26.1599C27.4061 26.3786 27.4061 26.625 27.3144 26.8436ZM33.8546 32.8309L33.8528 32.8371C33.6143 33.113 33.3603 33.3751 33.0923 33.6223C33.0384 33.6727 32.9845 33.7213 32.9297 33.7699C32.3105 34.3161 31.6249 34.7821 30.8892 35.1567L30.7717 35.2132C30.4231 35.3851 30.0645 35.5355 29.6976 35.6637C29.6737 35.6726 29.6508 35.6823 29.6261 35.6902L28.4433 34.8034C27.7776 34.3015 27.3854 33.517 27.3833 32.6834V28.9999C27.4257 28.9848 27.4654 28.9654 27.5069 28.9486L27.5493 28.931C27.5802 28.9177 27.6121 28.9071 27.643 28.8921L30.2479 31.497C30.4384 31.6838 30.6453 31.8528 30.8662 32.0023L30.9634 32.0703C31.1763 32.2072 31.4006 32.3254 31.6339 32.4237C31.6745 32.4413 31.7143 32.4572 31.7549 32.4731C31.9936 32.5683 32.2401 32.6428 32.4916 32.6957C32.5172 32.701 32.5437 32.7037 32.5693 32.7081C32.8245 32.7567 33.0834 32.7824 33.3431 32.7849C33.3555 32.7849 33.367 32.7849 33.3784 32.7849H33.3943C33.5716 32.7847 33.7486 32.7735 33.9243 32.7514C33.9023 32.7814 33.8775 32.8053 33.8546 32.8309ZM36.1539 27.5706C36.1442 27.659 36.1256 27.7473 36.1132 27.8356C36.077 28.1006 36.0355 28.3577 35.9781 28.6147C35.9542 28.7225 35.9233 28.8276 35.8959 28.9336C35.8359 29.1642 35.7714 29.3929 35.6945 29.6182C35.6539 29.7383 35.6062 29.8567 35.5638 29.9715C35.4861 30.1747 35.4013 30.3743 35.3103 30.5722C35.2758 30.6464 35.2396 30.7188 35.2043 30.7921L33.7433 31.0006C32.918 31.1162 32.0861 30.8391 31.4952 30.2515L28.8902 27.6466C28.9053 27.6157 28.9158 27.5839 28.9291 27.553L28.9468 27.5106C28.9635 27.469 28.983 27.4293 28.998 27.3869H32.6833C32.8539 27.3867 33.0243 27.3766 33.1938 27.3569C33.2539 27.3498 33.3113 27.3348 33.3705 27.3259C33.4791 27.3083 33.5878 27.2933 33.6947 27.2676C33.7627 27.2517 33.8281 27.2279 33.8952 27.2085C33.9906 27.1811 34.086 27.1563 34.1796 27.1201C34.2476 27.0954 34.313 27.0627 34.381 27.0318C34.4694 26.9947 34.5577 26.9602 34.646 26.9178C34.714 26.8843 34.7776 26.8436 34.8439 26.8065C34.9243 26.7615 35.0073 26.7182 35.0851 26.6687C35.1628 26.6193 35.2122 26.5804 35.2758 26.5309C35.3394 26.4815 35.4234 26.4276 35.4931 26.3711C35.5629 26.3145 35.6106 26.2642 35.6698 26.2103C35.729 26.1564 35.805 26.091 35.8677 26.0257C35.9304 25.9603 35.9684 25.9091 36.0205 25.849L36.0187 25.8587C36.07 25.7987 36.1247 25.743 36.1724 25.6821C36.1963 25.9559 36.2148 26.2306 36.2148 26.5106C36.2138 26.8648 36.1935 27.2186 36.1539 27.5706Z" fill="black"/>
<path d="M8.83307 7.06665H7.06641V8.83332H8.83307V7.06665Z" fill="black"/>
<path d="M45.9332 44.1667H44.1665V45.9334H45.9332V44.1667Z" fill="black"/>
<path d="M6.18359 26.5H7.95026C7.96141 16.2598 16.26 7.96117 26.5003 7.95002V6.18335C15.2849 6.19605 6.19629 15.2847 6.18359 26.5Z" fill="black"/>
<path d="M30.0333 6.18335H28.2666V7.95002H30.0333V6.18335Z" fill="black"/>
</svg>
